mastitorrents.com
  
http://mastitorrents.com/forums/index.php







----------------------------------------------------------------------------------------------------
----------------------------------------------------------------------------------------------------

LIKE US @ FACEBOOK


1. ---&gt; http://urlgator.com/efyQx   [MastiTorrentsReleasers]

2. ---&gt; http://urlgator.com/FG4tl   [MastiTorrents]


[OR]



Search for "MastiTorrentsReleasers" and "MastiTorrents" 



We are waiting for you!!!



----------------------------------------------------------------------------------------------------
----------------------------------------------------------------------------------------------------





****************************************************************************************************
****************************************************************************************************





8b    d8    db    .dP"Y8 888888 88 888888  dP"Yb  88""Yb 88""Yb 888888 88b 88 888888 .dP"Y8 
88b  d88   dPYb   `Ybo."   88   88   88   dP   Yb 88__dP 88__dP 88__   88Yb88   88   `Ybo." 
88YbdP88  dP__Yb  o.`Y8b   88   88   88   Yb   dP 88"Yb  88"Yb  88""   88 Y88   88   o.`Y8b 
88 YY 88 dP""""Yb 8bodP'   88   88   88    YbodP  88  Yb 88  Yb 888888 88  Y8   88   8bodP' 




****************************************************************************************************
****************************************************************************************************




====================================================================================================

                        MASTI TORRENTS RELEASERS [ MTR ]

                            Where Quality Matters!

====================================================================================================









description:




General
Complete name :IRON MAN 2(2010) Tamil Dubbed-SINGAM.avi
Format : DivX
Format/Info : Hack of AVI
File size : 699 MiB
Duration : 1h 59mn
Overall bit rate : 818 Kbps
Video #0
ID : 0
Format : MPEG-4 Visual
Format profile : AdvancedSimple@L5
Format settings, BVOP : Yes
Format settings, QPel : No
Format settings, GMC : No warppoints
Format settings, Matrix : Custom
Muxing mode : Packed bitstream
Codec ID : DX50
Codec ID/Hint : DivX 5
Duration : 1h 59mn
Bit rate : 679 Kbps
Width : 720 pixels
Height : 304 pixels
Display aspect ratio : 2.35:1
Frame rate : 29.970 fps
Resolution : 24 bits
Colorimetry : 4:2:0
Scan type : Progressive
Bits/(Pixel*Frame) : 0.103
Stream size : 580 MiB (83%)
Title : Video 
Writing library : XviD 1.2.0.dev47 (UTC 2006-11-01)
Audio #1
ID : 1
Format : MPEG Audio
Format version : Version 1
Format profile : Layer 3
Codec ID : 55
Codec ID/Hint : MP3
Duration : 1h 59mn
Bit rate mode : Constant
Bit rate : 128 Kbps
Channel(s) : 2 channels
Sampling rate : 48.0 KHz
Resolution : 16 bits
Stream size : 109 MiB (16%)
Alignment : Split accross interleaves
Interleave, duration : 33 ms (1.00 video frame)
Interleave, preload duration : 500 ms
Title : Audio 
Writing library : LAME3.98r
Encoding settings : -m j -V 4 -q 7 -lowpass 17 -b 128


 
http://www.imdb.com/title/tt1228705/

Credits : TMR 





Screens/Covers:
 
http://browseimage.net/out.php/i689_ironman22010tamildubbed.jpg
 
http://browseimage.net/out.php/i693_ironman22010tamildubbed.jpg
 
http://browseimage.net/out.php/i692_ironman22010tamildubbed.jpg
 
http://browseimage.net/out.php/i691_ironman22010tamildubbed.jpg
 
http://browseimage.net/out.php/i690_ironman22010tamildubbed.jpg







****check out my other releases****

 
http://thepiratebay.org/user/tdkdemon/













    &lt;&lt;&lt;&lt;&lt;&lt;&lt;SUPERFAST RELEASES BROUGHT TO YOU BY&gt;&gt;&gt;&gt;&gt;&gt;

          


                                  Masti Torrents Releasers [ MTR ]





            8888b.  888888 8b    d8  dP"Yb  88b 88     88888 8b    d8 888888 88""Yb 88888 
             8I  Yb 88__   88b  d88 dP   Yb 88Yb88     88    88b  d88   88   88__dP    88 
             8I  dY 88""   88YbdP88 Yb   dP 88 Y88     88    88YbdP88   88   88"Yb     88 
            8888Y"  888888 88 YY 88  YbodP  88  Y8     88888 88 YY 88   88   88  Yb 88888 
